Coordinates
version=1
nRows=29
nColumns=24
inDegrees=yes

Units are S.I. units (second, meters, Newtons, ...)
Angles are in degrees.

endheader
time	pelvis_tilt	pelvis_list	pelvis_rotation	pelvis_tx	pelvis_ty	pelvis_tz	hip_flexion_r	hip_adduction_r	hip_rotation_r	knee_angle_r	ankle_angle_r	subtalar_angle_r	mtp_angle_r	hip_flexion_l	hip_adduction_l	hip_rotation_l	knee_angle_l	ankle_angle_l	subtalar_angle_l	mtp_angle_l	lumbar_extension	lumbar_bending	lumbar_rotation
      0.72483333	      0.27888713	     -3.67773149	      1.57389696	     -0.46518901	      1.01291971	      0.32197203	      5.99500184	      7.39912996	     -0.83541621	    -15.35264746	     10.63312690	     -8.45751928	     -1.89720631	     12.68569239	     -4.15126902	     -0.79472133	    -67.12716579	     -9.70340515	     -5.02009554	      3.66409417	    -12.73089701	     11.85178089	     -0.00125074
      0.72900000	      0.25172658	     -3.47472075	      1.61957339	     -0.46009775	      1.01371977	      0.32224449	      5.52657811	      7.21878364	     -0.79262987	    -14.99284899	     10.65644495	     -8.47127687	     -1.90874991	     13.20659975	     -3.96248506	     -0.81769631	    -66.99756587	     -8.98918378	     -5.38940099	      3.62912629	    -12.69911345	     11.57587286	      0.06463784
      0.73316667	      0.28681309	     -3.26933034	      1.63529909	     -0.45502954	      1.01461065	      0.32260712	      4.96671909	      7.05506933	     -0.64222939	    -14.57449609	     10.58075364	     -8.66646762	     -1.97634352	     13.63993255	     -3.78820099	     -0.88499506	    -66.79509715	     -8.29414044	     -5.73023556	      3.37678562	    -12.80161428	     11.19120295	      0.48791486
      0.73733333	      0.26390228	     -3.03016762	      1.67352118	     -0.44996182	      1.01539179	      0.32286526	      4.50233085	      6.83442953	     -0.60751082	    -14.23216582	     10.59326902	     -8.70802962	     -1.99419366	     14.12629842	     -3.54661353	     -0.91095229	    -66.53045270	     -7.58865490	     -6.05202351	      3.32729743	    -12.77869071	     10.86309617	      0.55294884
      0.74150000	      0.30907651	     -2.81322164	      1.67152889	     -0.44486751	      1.01628136	      0.32320912	      3.92542413	      6.65377108	     -0.45421147	    -13.80341502	     10.53065414	     -8.86888328	     -2.07480075	     14.51278477	     -3.35728307	     -1.00121378	    -66.19416685	     -6.91464412	     -6.36319428	      3.06134968	    -12.89419616	     10.48251395	      0.94972402
      0.74566667	      0.33060317	     -2.57219570	      1.67668737	     -0.43978858	      1.01710703	      0.32349910	      3.39573023	      6.43663774	     -0.36124533	    -13.42191645	     10.50425058	     -8.96751824	     -2.16796072	     14.91178207	     -3.12443129	     -1.07561666	    -65.79606003	     -6.23122128	     -6.64846085	      2.76155403	    -12.95472722	     10.11008265	      1.18882386
      0.74983333	      0.28466157	     -2.32341000	      1.69316934	     -0.43471478	      1.01781627	      0.32373259	      2.96072717	      6.19939531	     -0.33306455	    -13.08624188	     10.49673285	     -8.99459979	     -2.18842256	     15.37566275	     -2.86554758	     -1.12484747	    -65.34633981	     -5.54353482	     -6.91084233	      2.71404910	    -12.90960304	      9.77948239	      1.23359474
      0.75400000	      0.32870295	     -2.07629890	      1.67423995	     -0.42963658	      1.01864042	      0.32404403	      2.40013412	      5.97660299	     -0.20984916	    -12.68753134	     10.46055381	     -9.09914371	     -2.27296046	     15.71378009	     -2.63033506	     -1.22595171	    -64.82173771	     -4.88644727	     -7.16367655	      2.46363062	    -13.01729866	      9.37527024	      1.59063285
      0.75816667	      0.29431180	     -1.82709115	      1.68129151	     -0.42457899	      1.01932126	      0.32425438	      1.95687770	      5.73572882	     -0.18769231	    -12.35511143	     10.43590810	     -9.12263308	     -2.29663603	     16.13417779	     -2.36684682	     -1.28373650	    -64.25400598	     -4.20790050	     -7.37915006	      2.40942020	    -12.99660578	      9.03334070	      1.63987656
      0.76233333	      0.35773777	     -1.58876827	      1.65288681	     -0.41950332	      1.02012108	      0.32452361	      1.37426808	      5.51583476	     -0.07205390	    -11.94923603	     10.39319519	     -9.20953337	     -2.38976087	     16.41742752	     -2.13434038	     -1.38626700	    -63.61120234	     -3.55045398	     -7.57038966	      2.13847258	    -13.12294974	      8.66369772	      1.99930791
      0.76650000	      0.32210775	     -1.34244380	      1.63730268	     -0.41444339	      1.02074241	      0.32475788	      0.92248256	      5.27984272	     -0.00087178	    -11.59345225	     10.35640725	     -9.26537505	     -3.37250682	     16.80536816	     -1.87774945	     -1.46409981	    -62.93590294	     -2.83270867	     -7.66223759	     -0.87262786	    -13.10316930	      8.30444406	      2.14402375
      0.77066667	      0.27935872	     -1.11771057	      1.64670138	     -0.40942777	      1.02129403	      0.32490880	      0.50158758	      5.05811586	     -0.00868158	    -11.27981596	     10.34732161	     -9.26209231	     -3.38205803	     17.19872876	     -1.62353597	     -1.49788728	    -62.21933041	     -2.17055927	     -7.83713205	     -0.86628900	    -13.08716991	      7.98821035	      2.20175175
      0.77483333	      0.32942251	     -0.86639662	      1.62142532	     -0.40436523	      1.02199163	      0.32509733	     -0.04511603	      4.81068036	      0.03922655	    -10.91682811	     10.33122098	     -9.27984296	     -3.40887026	     17.44575687	     -1.35462954	     -1.57241267	    -61.39979326	     -1.56073190	     -7.92690774	     -0.88865771	    -13.18355759	      7.63020133	      2.46976653
      0.77900000	      0.29446253	     -0.62518122	      1.60621039	     -0.39933956	      1.02251209	      0.32523532	     -0.46712024	      4.56579932	      0.03695406	    -10.61697467	     10.27680055	     -9.28567891	     -3.42617419	     17.78295999	     -1.07914708	     -1.61889892	    -60.55058046	     -0.93308089	     -8.02649241	     -0.90279290	    -13.16765120	      7.31461163	      2.57259615
      0.78316667	      0.32726242	     -0.41040435	      1.58979516	     -0.39430459	      1.02309881	      0.32538976	     -0.99149396	      4.35497385	      0.07634762	    -10.25217350	     10.24532794	     -9.29301949	     -3.45601831	     18.02930544	     -0.83918399	     -1.66380259	    -59.64863015	     -0.33735012	     -8.08377988	     -0.95242605	    -13.25342509	      6.98974650	      2.79548212
      0.78733333	      0.27756902	     -0.19765059	      1.57228951	     -0.38929746	      1.02352040	      0.32549995	     -1.38926509	      4.13690444	      0.07187752	     -9.96386651	     10.17902576	     -9.29190936	     -3.47538061	     18.35476884	     -0.58525938	     -1.68922469	    -58.70548437	      0.25666929	     -8.13330412	     -0.98190373	    -13.22272472	      6.71199539	      2.89544506
      0.79150000	      0.29036020	      0.00757505	      1.55491093	     -0.38427584	      1.02399512	      0.32560573	     -1.87802054	      3.92975620	      0.09641013	     -9.62676235	     10.15134992	     -9.28041612	     -3.50827687	     18.59241408	     -0.34167472	     -1.71242356	    -57.70694333	      0.81289319	     -8.14983798	     -1.05903512	    -13.28393268	      6.41077919	      3.09908415
      0.79566667	      0.28694779	      0.21436392	      1.53785722	     -0.37926479	      1.02441791	      0.32568823	     -2.33453930	      3.71648713	      0.09502810	     -9.31768658	     10.10182743	     -9.26076650	     -3.54047027	     18.82869998	     -0.08668244	     -1.71768142	    -56.65336154	      1.34826842	     -8.15711105	     -1.14148366	    -13.31654882	      6.12901449	      3.23785868
      0.79983333	      0.27733977	      0.40477040	      1.51915281	     -0.37426401	      1.02479555	      0.32574898	     -2.77828800	      3.51838250	      0.09532459	     -9.01859114	     10.04629795	     -9.23590673	     -3.57588112	     19.05670867	      0.15708484	     -1.70845462	    -55.55477781	      1.85786477	     -8.15107719	     -1.24244823	    -13.34789188	      5.86955466	      3.37966047
      0.80400000	      0.22236924	      0.58290550	      1.50560598	     -0.36927603	      1.02506988	      0.32578035	     -3.15396383	      3.32956750	      0.07850565	     -8.75820129	      9.97404567	     -9.21374246	     -3.59673865	     19.32137663	      0.39828724	     -1.67443740	    -54.41347440	      2.33722343	     -8.12803368	     -1.29643006	    -13.30878738	      5.64273000	      3.45527403
      0.80816667	      0.23401355	      0.75947136	      1.48963218	     -0.36426268	      1.02540437	      0.32581381	     -3.62565240	      3.14460137	      0.08276675	     -8.44852735	      9.94271078	     -9.17480632	     -3.62905505	     19.48953503	      0.63459326	     -1.64071542	    -53.21610882	      2.76882875	     -8.09449962	     -1.40340364	    -13.37043967	      5.39650095	      3.61135016
      0.81233333	      0.23259465	      0.93081081	      1.47011918	     -0.35925912	      1.02568877	      0.32583078	     -4.06800848	      2.96174583	      0.07830746	     -8.16859771	      9.88861346	     -9.13239605	     -3.66243683	     19.65321043	      0.87216308	     -1.59157663	    -51.96902136	      3.17214063	     -8.06560088	     -1.51850625	    -13.41046364	      5.17031006	      3.73022859
      0.81650000	      0.19567248	      1.08908758	      1.45244870	     -0.35425739	      1.02589952	      0.32583044	     -4.46510070	      2.79051147	      0.07787848	     -7.90214278	      9.83330965	     -9.09276580	     -3.69701380	     19.83808462	      1.10225545	     -1.52310240	    -50.67532061	      3.53655902	     -8.02958957	     -1.64333621	    -13.40775308	      4.96146531	      3.84443503
      0.82066667	      0.11703986	      1.23206716	      1.43782596	     -0.34926512	      1.02598171	      0.32580678	     -4.80038611	      2.63250374	      0.06145343	     -7.66926528	      9.76787218	     -9.05486788	     -3.71450710	     20.06056365	      1.31833233	     -1.44776532	    -49.35873438	      3.89536919	     -7.96834103	     -1.69920991	    -13.35499706	      4.78676953	      3.89654190
      0.82483333	      0.08584496	      1.37504237	      1.41999273	     -0.34425641	      1.02613188	      0.32579113	     -5.18918597	      2.47558332	      0.05644763	     -7.43390925	      9.70966643	     -9.01036130	     -3.73612595	     20.19784945	      1.53895897	     -1.34576288	    -47.96495161	      4.17787359	     -7.91706323	     -1.77668969	    -13.34016571	      4.58858271	      3.98906485
      0.82900000	      0.05871704	      1.51723445	      1.40120762	     -0.33923911	      1.02625434	      0.32576066	     -5.58514480	      2.31741705	      0.05184907	     -7.19213285	      9.65940052	     -8.95759743	     -3.75825095	     20.31144592	      1.75973911	     -1.24006887	    -46.52683023	      4.42833558	     -7.87695642	     -1.86052750	    -13.34895566	      4.40361038	      4.08263669
      0.83316667	      0.05224519	      1.66049309	      1.38280703	     -0.33420713	      1.02637568	      0.32570483	     -6.01469949	      2.15568478	      0.05506310	     -6.92809353	      9.64282519	     -8.87256041	     -3.79297958	     20.37817459	      1.98694040	     -1.12015245	    -45.03448132	      4.62106937	     -7.89597034	     -2.00861287	    -13.39775351	      4.22304497	      4.20982089
      0.83733333	     -0.04069378	      1.78203579	      1.36783134	     -0.32918019	      1.02632072	      0.32564900	     -6.31824174	      2.01528675	      0.03307124	     -6.73133354	      9.58137135	     -8.82844016	     -3.80960050	     20.53205529	      2.18475959	     -1.00391614	    -43.52809968	      4.84206154	     -7.80749704	     -2.06965489	    -13.31836616	      4.08003872	      4.25159637
      0.84150000	     -0.04602252	      1.90352507	      1.35282182	     -0.32414989	      1.02637139	      0.32558367	     -6.73501377	      1.87692714	      0.03819827	     -6.49714786	      9.55964784	     -8.74810345	     -3.84058226	     20.55616101	      2.39538975	     -0.83769945	    -41.94642965	      4.95198140	     -7.83707716	     -2.20529223	    -13.36224071	      3.92118759	      4.35636594
